<?xml version="1.0" encoding="UTF-8"?>
<svg width="1200pt" height="1200pt" version="1.1" viewBox="0 0 1200 1200" xmlns="http://www.w3.org/2000/svg">
 <g fill="#fff">
  <path d="m962.81 444.91c0-10.617-8.6055-19.223-19.223-19.223-10.617 0-19.223 8.6055-19.223 19.223v605.09h38.445zm-687.18 605.09v-605.09c0-10.617-8.6055-19.223-19.223-19.223-10.617 0-19.223 8.6055-19.223 19.223v605.09z"/>
  <path d="m157.63 444.87 442.37-294.87 442.37 294.87zm471.6-178.7-21.605 39.234c-7.9805-23.941-4.3164-41.711-8.3242-69.16-149.9 173.57 117.55 196.42 29.93 29.93z" fill-rule="evenodd"/>
  <path d="m401.05 562.46h397.9c15.254 0 27.734 12.48 27.734 27.734v24.48h-453.38v-24.48c0-15.254 12.48-27.734 27.734-27.734zm128.11 250.6h141.68c3.9805 0 7.207 3.2266 7.207 7.207v56.152c0 3.9805-3.2266 7.207-7.207 7.207h-141.68c-3.9805 0-7.207-3.2266-7.207-7.207v-56.152c0-3.9805 3.2266-7.207 7.207-7.207zm49.215 14.418-32.594 41.738h-9.4141v-41.738zm-14.371 41.738 32.594-41.738h39.395l-32.594 41.738zm57.621 0 32.594-41.738h9.4102v41.738h-42.008zm-194.34-48.945h56.297v56.301h-56.297zm289.13 0h56.297v56.301h-56.297zm110.27-191.18v143.05h-219.48v-143.05zm0 157.47v130.92h-453.38v-130.92zm-453.38-14.418v-143.05h219.48v143.05z" fill-rule="evenodd"/>
  <path d="m430.08 965.46h90.234v57.551c0 14.844-12.145 26.984-26.988 26.984h-36.262c-14.844 0-26.988-12.145-26.988-26.984v-57.551z" fill-rule="evenodd"/>
  <path d="m679.68 965.46h90.234v57.551c0 14.844-12.145 26.984-26.984 26.984h-36.262c-14.844 0-26.988-12.145-26.988-26.984z" fill-rule="evenodd"/>
  <path d="m346.59 917.49h506.81v47.977h-506.81z" fill-rule="evenodd"/>
 </g>
</svg>
