<?xml version="1.0" encoding="UTF-8"?>
<svg width="1200pt" height="1200pt" version="1.1" viewBox="0 0 1200 1200" xmlns="http://www.w3.org/2000/svg">
 <path d="m1136 992.62-480.5-838.13c-12.684-17.102-29.762-34.488-46.859-34.488-17.113 0-34.188 17.375-46.859 34.488l-481.35 839.64c-4.5234 17.617-3.3359 46.355 40.141 68.148 0.19141 0 0.33594 0.058594 0.51562 0.058594h975.09c44.879-22.441 44.82-52.246 39.828-69.719zm-469.57-34.227c-13.789 11.496-33.086 17.23-57.84 17.23-25.008 0-44.617-5.7461-58.766-17.23-14.16-11.484-21.238-27.48-21.238-47.953 0-20.699 6.8164-36.781 20.473-48.277 13.656-11.473 33.492-17.207 59.531-17.207 25.789 0 45.312 5.7461 58.586 17.207 13.262 11.496 19.922 27.59 19.922 48.277 0.011719 20.512-6.8906 36.469-20.668 47.953zm5.1133-165.06h-125.14l-21.828-353.05c0-27.84 37.621-50.438 84.059-50.438 46.414 0 84.047 22.586 84.047 50.438z" fill="#fff"/>
</svg>
