<?xml version="1.0" encoding="UTF-8"?>
<svg width="1200pt" height="1200pt" version="1.1" viewBox="0 0 1200 1200" xmlns="http://www.w3.org/2000/svg">
 <g fill="#fff">
  <path d="m600 960c-44 0-80 36-80 80v160h160v-160c0-44-36-80-80-80z"/>
  <path d="m401.6 600h398.4v-120c0-12.398-6-24.398-16-32l-144-108v-60h160c16 0 30.801-9.6016 36.801-24.801 6-14.801 2.8008-32-8.8008-43.602l-199.6-200c-11.602-11.602-28.801-14.801-43.602-8.8008s-24.801 20.801-24.801 36.801v300l-144 108c-10 7.6016-16 19.199-16 32v101.6c0.80078 6 1.6016 12 1.6016 18.398z"/>
  <path d="m1080 560h-157.6c-10.801 0-20.801 4.3984-28.398 11.602-7.6016 7.6016-11.602 17.602-11.602 28.398v80h-560.8v-80c0-10.801-4-20.801-11.602-28.398-7.6016-7.6016-17.602-11.602-28.398-11.602h-161.6c-22 0-40 18-40 40v560c0 22 18 40 40 40h320v-160c0-88.398 71.602-160 160-160s160 71.602 160 160v160h320c22 0 40-18 40-40v-560c0-22-18-40-40-40z"/>
 </g>
</svg>
