<?xml version="1.0" encoding="UTF-8"?>
<svg width="1200pt" height="1200pt" version="1.1" viewBox="0 0 1200 1200" xmlns="http://www.w3.org/2000/svg">
 <g fill="#fff">
  <path d="m1136.1 424.14h-169.95v-197.73c0-15.277-12.395-27.66-27.66-27.66h-85.57v-111.08c0-15.277-12.371-27.672-27.684-27.672h-437.4c-15.254 0-27.66 12.383-27.66 27.66v111.09h-85.547c-15.277 0-27.672 12.383-27.672 27.66v197.72h-171.87c-15.277 0-27.684 12.383-27.684 27.66v686.54c0 15.277 12.383 27.66 27.684 27.66l1061 0.011718c15.277 0 27.684-12.359 27.684-27.672v-686.53c-0.011719-15.277-12.383-27.66-27.684-27.66zm-889.13 686.57h-144.21v-631.25h144.23v631.25zm168.54-995.38h382.09v83.426h-382.09zm288.21 989.4h-194.3v-130.34h194.32v130.34zm205.18 5.9766h-149.86v-163.97c0-15.266-12.371-27.672-27.66-27.672h-249.62c-15.277 0-27.66 12.383-27.66 27.672v163.97h-151.79v-856.63h608.51zm199.55 0h-142.29v-631.25h142.29z"/>
  <path d="m677.14 747.41h-139l-13.297 26.594h-43.883l50.531-85.789c-20.617-3.9727-49.871-29.242-49.871-55.188v-178.21c-0.67188-107.05 249.37-107.05 248.71 0v178.21c0 26.605-29.258 51.863-49.883 55.859l49.883 85.117h-38.578zm-155.63-220.11c0 21.277 2.0039 26.605 15.961 26.605h137.66c15.949 0 15.949-5.3281 15.949-26.605v-69.168c-0.66016-51.863-169.57-51.863-169.57 0.67188zm24.613 119.03c35.902 0 35.902-55.199 0-55.199-33.242 0.011718-33.242 55.199 0 55.199zm117.71 78.469-15.961-27.926h-83.785l-14.641 27.926zm0.67188-79.801c35.242 0 35.242-55.199 0-55.199-33.91 0-33.91 55.199 0 55.199z"/>
 </g>
</svg>
