<?xml version="1.0" encoding="UTF-8"?>
<svg width="1200pt" height="1200pt" version="1.1" viewBox="0 0 1200 1200" xmlns="http://www.w3.org/2000/svg">
 <g>
  <rect width="1200" height="1200" fill="#fff"/>
  <path d="m751.14 358.17c-22.551 0.011719-44.293 8.4258-60.977 23.602-16.684 15.172-27.113 36.02-29.254 58.469l-76.027 19.047c-12.855-19.469-32.719-33.234-55.465-38.434-22.742-5.1992-46.613-1.4336-66.652 10.516-20.039 11.945-34.699 31.156-40.941 53.637-6.2383 22.48-3.5742 46.5 7.4414 67.066 11.016 20.566 29.535 36.098 51.703 43.363 22.172 7.2656 46.289 5.707 67.34-4.3516l60.457 60.457c-4.5781 9.5-7.4414 19.73-8.4648 30.227l-75.875 19.348c-15.871-23.98-42.18-39.008-70.895-40.504-28.719-1.5-56.441 10.711-74.723 32.91-18.281 22.195-24.953 51.75-17.977 79.645 6.9727 27.898 26.766 50.836 53.34 61.816 26.578 10.984 56.789 8.7109 81.422-6.125 24.633-14.832 40.77-40.473 43.492-69.102l76.027-19.043c12.855 19.469 32.719 33.234 55.461 38.434 22.746 5.1992 46.617 1.4336 66.656-10.516 20.039-11.945 34.699-31.156 40.938-53.637 6.2422-22.48 3.5742-46.504-7.4375-67.07-11.016-20.562-29.535-36.094-51.703-43.359-22.172-7.2656-46.289-5.707-67.34 4.3516l-60.457-60.457c4.6016-9.4961 7.4922-19.727 8.5391-30.227l75.801-19.348c17.605 26.617 47.906 42.023 79.785 40.562 31.879-1.4609 60.645-19.566 75.746-47.684 15.098-28.113 14.309-62.098-2.082-89.48-16.391-27.383-45.965-44.137-77.879-44.113zm-272.06 151.14c0-8.0156 3.1875-15.707 8.8555-21.375 5.668-5.668 13.359-8.8555 21.375-8.8555s15.707 3.1875 21.375 8.8555c5.668 5.668 8.8516 13.359 8.8516 21.375s-3.1836 15.707-8.8516 21.375c-5.668 5.668-13.359 8.8516-21.375 8.8516s-15.707-3.1836-21.375-8.8516c-5.668-5.668-8.8555-13.359-8.8555-21.375zm-30.227 272.06c-8.0195 0-15.707-3.1875-21.375-8.8555s-8.8555-13.359-8.8555-21.375 3.1875-15.707 8.8555-21.375 13.355-8.8555 21.375-8.8555c8.0156 0 15.707 3.1875 21.375 8.8555s8.8516 13.359 8.8516 21.375-3.1836 15.707-8.8516 21.375-13.359 8.8555-21.375 8.8555zm272.05-90.688c0 8.0156-3.1836 15.707-8.8516 21.375s-13.359 8.8516-21.375 8.8516-15.707-3.1836-21.375-8.8516-8.8555-13.359-8.8555-21.375 3.1875-15.707 8.8555-21.375 13.359-8.8555 21.375-8.8555 15.707 3.1875 21.375 8.8555 8.8516 13.359 8.8516 21.375zm30.23-211.6c-8.0156 0-15.707-3.1836-21.375-8.8516s-8.8555-13.359-8.8555-21.375c0-8.0195 3.1875-15.707 8.8555-21.375s13.359-8.8555 21.375-8.8555 15.707 3.1875 21.375 8.8555 8.8555 13.355 8.8555 21.375c0 8.0156-3.1875 15.707-8.8555 21.375s-13.359 8.8516-21.375 8.8516z"/>
 </g>
</svg>
