<?xml version="1.0" encoding="UTF-8"?>
<svg width="1200pt" height="1200pt" version="1.1" viewBox="0 0 1200 1200" xmlns="http://www.w3.org/2000/svg">
 <path d="m598.66 216.98c1.5 0 3.0195 0 4.5195 0.019531l6.5195-104.72c-3.6602-0.078125-7.3398-0.12109-11.039-0.12109-2.5586 0-5.1406 0.019532-7.6797 0.058594l5.3984 104.78h2.3008zm202.34-108.84-9.3203 22.02c2.9219 1.1992 5.8203 2.4219 8.7188 3.6797l10.48-22.121-9.8594-3.5781zm-17.121 40.441-40.879 96.559c1.3203 0.53906 2.6211 1.0781 3.9219 1.6211l44.898-94.84c-2.6406-1.1406-5.2812-2.2617-7.9414-3.3594zm-48.68 114.98-9.7383 23 2.2383 0.82031 10.66-22.5c-1.0586-0.44141-2.1016-0.87891-3.1602-1.3008zm-19.121 19.578 9.8203-23.219c-1.3984-0.51953-2.8203-1.0391-4.2188-1.5586l-7.1406 24.199 1.5391 0.55859zm17.641-41.641 40.898-96.602c-5.8008-2.2383-11.66-4.3789-17.559-6.4219l-29.719 100.68c2.1211 0.76172 4.2383 1.5391 6.3594 2.3398zm48.719-115.04 9.1992-21.719-22.219-8.0781-6.6797 22.621c6.6211 2.2617 13.199 4.6602 19.699 7.1797zm-77.281 152.7 7.1016-24.039c-0.89844-0.30078-1.8203-0.60156-2.7188-0.87891l-6.2383 24.238 1.8789 0.67969zm12.762-43.238 29.68-100.6c-2.2812-0.73828-4.5781-1.4414-6.8789-2.1406l-26.199 101.66c1.1406 0.35938 2.2617 0.71875 3.3789 1.1016zm35.34-119.78 6.7617-22.922-8.2188-3-6.0781 23.559c2.5195 0.76172 5.0391 1.5391 7.5391 2.3398zm-4.2617-43.898 75.281 27.398c0.32031 0.10156 0.64062 0.21875 0.96094 0.37891 3.9805 1.8789 5.6992 6.6406 3.8203 10.621l-14.102 29.801c26.34 12.422 51.441 27.039 75.039 43.641l18.68-27.219c0.17969-0.28125 0.37891-0.55859 0.60156-0.82031 2.8398-3.3789 7.8594-3.8398 11.262-1l61.578 51.68c0.19922 0.16016 0.37891 0.33984 0.55859 0.51953 3.0781 3.1406 3.0391 8.1992-0.10156 11.281l-23.84 23.559c20.379 20.52 39.02 42.781 55.66 66.52l27.441-19.602c0.19922-0.14062 0.42187-0.28125 0.64062-0.42188 3.8203-2.1992 8.6797-0.87891 10.879 2.9414l40.039 69.34c0.17969 0.30078 0.35938 0.62109 0.5 0.94141 1.8203 4 0.058594 8.7383-3.9414 10.559l-30.699 14.102c12.078 26.039 22 53.301 29.559 81.52l32.18-8.9609c0.42187-0.14062 0.83984-0.26172 1.3008-0.33984 4.3398-0.76172 8.5 2.1602 9.2617 6.5l13.961 79.18c0.039063 0.23828 0.078125 0.5 0.10156 0.76172 0.33984 4.3984-2.9414 8.2383-7.3398 8.6016l-34 2.7812c1.1992 14.219 1.8203 28.602 1.8203 43.141 0 14.641-0.62109 29.16-1.8398 43.48l33.859 2.6406c0.33984 0.019531 0.66016 0.058594 1 0.12109 4.3398 0.76172 7.2617 4.8984 6.5 9.2617l-13.961 79.18h-0.019531c-0.039063 0.23828-0.10156 0.48047-0.16016 0.71875-1.1602 4.2383-5.5391 6.7617-9.7812 5.6016l-32.941-9.0391c-7.5781 28.199-17.52 55.422-29.602 81.441l31.059 14.121c0.23828 0.12109 0.48047 0.23828 0.71875 0.37891 3.8203 2.1992 5.1211 7.1016 2.8984 10.898l-40.199 69.621c-0.12109 0.21875-0.26172 0.42188-0.39844 0.62109-2.5586 3.5781-7.5391 4.4219-11.121 1.8789l-27.859-19.738c-16.641 23.719-35.262 45.941-55.621 66.441l24.078 23.621c0.28125 0.26172 0.55859 0.53906 0.82031 0.83984 2.8398 3.3789 2.3789 8.4219-1 11.262l-61.578 51.68c-0.17969 0.16016-0.37891 0.30078-0.57812 0.44141-3.6211 2.5-8.6016 1.6016-11.102-2.0391l-19.281-27.898c-23.602 16.559-48.66 31.18-74.961 43.602l14.359 30.02c0.17969 0.33984 0.35938 0.71875 0.5 1.1016 1.5 4.1406-0.64062 8.7188-4.7812 10.219l-75.539 27.5c-0.23828 0.078125-0.48047 0.16016-0.71875 0.21875-4.2617 1.1016-8.6211-1.4609-9.7188-5.7188l-8.4609-32.359c-27.621 7.4219-56.16 12.578-85.441 15.238l3.1602 32.539c0.078125 0.46094 0.12109 0.94141 0.12109 1.4414 0 4.4219-3.5781 8-8 8h-80.398v-0.039063c-0.23828 0-0.48047-0.019531-0.71875-0.039062-4.3789-0.39844-7.6211-4.2812-7.2188-8.6602l3.0781-33c-29.281-2.4805-57.84-7.4414-85.48-14.68l-8.3008 31.762c-1.1016 4.2617-5.4609 6.8203-9.7188 5.7188-0.23828-0.058594-0.48047-0.14062-0.71875-0.21875l-75.539-27.5c-4.1406-1.5-6.2812-6.0781-4.7812-10.219 0.14062-0.37891 0.30078-0.76172 0.5-1.1016l13.84-28.961c-26.441-12.301-51.66-26.801-75.398-43.281l-18.441 26.68c-2.5 3.6211-7.4609 4.5391-11.102 2.0391-0.19922-0.14062-0.39844-0.30078-0.57812-0.44141l-61.578-51.68c-3.3789-2.8398-3.8398-7.8594-1-11.262 0.26172-0.30078 0.51953-0.57812 0.82031-0.83984l22.68-22.262c-0.17969-0.17969-0.37891-0.35938-0.55859-0.55859-20.32-20.32-38.941-42.359-55.578-65.879l-26.102 18.5c-3.5781 2.5586-8.5781 1.7188-11.121-1.8789-0.23828-0.33984-0.44141-0.67969-0.62109-1.0391l-39.98-69.238c-2.1992-3.8203-0.87891-8.6797 2.9414-10.879 0.21875-0.14063 0.46094-0.23828 0.69922-0.35938v-0.019531l28.801-13.102c-12.219-26.102-22.301-53.441-29.98-81.738l-30.48 8.3594c-4.2383 1.1602-8.6211-1.3398-9.7812-5.6016-0.058594-0.23828-0.12109-0.48047-0.16016-0.71875h-0.019531l-13.961-79.18c-0.76172-4.3398 2.1602-8.5 6.5-9.2383 0.33984-0.058593 0.67969-0.10156 1-0.12109l31.16-2.4219c-1.2617-14.602-1.9219-29.359-1.9219-44.281 0-14.398 0.60156-28.68 1.7812-42.781l-31.379-2.5586c-4.3984-0.33984-7.6797-4.1992-7.3398-8.6016 0.019532-0.26172 0.058594-0.5 0.10156-0.76172l13.961-79.18c0.76172-4.3398 4.8984-7.2617 9.2617-6.5 0.44141 0.078125 0.87891 0.19922 1.3008 0.33984l29.621 8.2383c7.6016-28.34 17.602-55.719 29.762-81.859l-28.52-13.102c-4-1.8203-5.7617-6.5586-3.9414-10.559 0.10156-0.23828 0.21875-0.46094 0.35937-0.67969l40.199-69.621c2.1992-3.8203 7.1016-5.1211 10.898-2.8984 0.30078 0.17969 0.57812 0.35938 0.83984 0.55859l25.379 18.141c16.762-23.801 35.52-46.102 56.02-66.66l-22.52-22.262c-3.1406-3.0781-3.1797-8.1406-0.10156-11.281 0.17969-0.17969 0.37891-0.35938 0.55859-0.51953l61.578-51.68c3.3789-2.8398 8.4219-2.3789 11.262 1 0.21875 0.26172 0.42188 0.53906 0.60156 0.82031l17.781 25.922c23.719-16.539 48.941-31.121 75.379-43.48l-13.641-28.801c-1.8789-3.9805-0.17969-8.7383 3.8203-10.621 0.32031-0.14062 0.64062-0.28125 0.96094-0.37891l75.281-27.398c4.1406-1.5 8.7188 0.64062 10.219 4.7812 0.14062 0.37891 0.23828 0.78125 0.32031 1.1602l7.8594 30.539c27.719-7.3203 56.359-12.34 85.699-14.859l-3.0195-32.238c-0.39844-4.3789 2.8398-8.2617 7.2188-8.6602 0.23828-0.019531 0.48047-0.039062 0.71875-0.039062v-0.039063h80.398c4.4219 0 8 3.5781 8 8 0 0.5-0.039062 0.98047-0.12109 1.4414l-3.0781 31.699c29.359 2.6406 58 7.7812 85.699 15.219l8.0586-31.238c0.078125-0.39844 0.17969-0.78125 0.32031-1.1602 1.5-4.1406 6.0781-6.2812 10.219-4.7812zm57.379 86.281-44.859 94.762c20.32 9.5781 39.68 20.879 57.859 33.738l59.301-86.441c-22.738-15.98-46.922-30.078-72.301-42.039zm-53.422 112.84-13.922 29.422c-1.7383 3.6797-6.0195 5.5195-9.9414 4.1016l-38.039-13.84v-0.019531c-3.8203-1.3789-6.0195-5.4609-5-9.4609l8.1992-31.84c-20.52-5.6016-41.762-9.4219-63.539-11.34l-3.1992 32.898c-0.39844 4.1406-3.8594 7.2188-7.9414 7.2188v0.019532h-40.48c-4.3984 0-7.9609-3.5586-8-7.9414l-3.0195-32.34c-21.602 1.8008-42.66 5.5-63.02 10.941l8.3789 32.559c1.0195 4-1.1992 8.0781-5 9.4609v0.019531l-38.039 13.84c-3.8984 1.4219-8.1992-0.39844-9.9414-4.1016l-14.398-30.398c-19.48 9.0391-38.02 19.781-55.441 32l19.199 27.98c2.3398 3.4219 1.6406 8.0195-1.4805 10.621l-31.02 26.02c-3.2812 2.7383-8.1406 2.3984-11-0.71875l-23.82-23.539-0.26172 0.26172c-15.02 15.02-28.719 31.34-40.922 48.801l27.762 19.84c3.5 2.5 4.3789 7.3008 2.0586 10.859l-20.02 34.68c-2.0586 3.6016-6.5195 4.9805-10.219 3.2812l-31-14.238c-8.9805 19.219-16.32 39.379-21.84 60.262l33 9.1797c4 1.1016 6.4414 5.0586 5.7383 9.0586h0.019532l-7.0195 39.859c-0.71875 4.1602-4.5195 6.9805-8.6602 6.5781l-33.781-2.7617c-0.85938 10.219-1.3008 20.559-1.3008 31 0 11.141 0.5 22.16 1.4805 33.039l34.02-2.6406c4.1406-0.30078 7.7812 2.6016 8.4609 6.6016l7.0195 39.859c0.76172 4.3203-2.1016 8.4219-6.3789 9.2188l-32.078 8.8008c5.6406 20.84 13.078 40.922 22.141 60.078l30.879-14.039c3.9609-1.7812 8.6016-0.078125 10.461 3.8008l19.961 34.578c2.0586 3.5781 1.0195 8.1211-2.2812 10.461l-27.359 19.398c11.941 16.879 25.281 32.68 39.84 47.262 0.51953 0.51953 1.0195 1.0195 1.5391 1.5195l23.859-23.398c2.9609-2.8984 7.6016-3.0391 10.719-0.44141l31.02 26.02c3.3008 2.7617 3.8008 7.6211 1.1992 11l-18.578 26.879c17.441 12.121 36 22.762 55.5 31.699l14.262-29.82c1.7812-3.7383 6.1016-5.4414 9.8984-4.0586l38.039 13.84c3.9805 1.4414 6.1211 5.7383 4.9414 9.7383l-8.1992 31.379c20.141 5.2812 40.941 8.8789 62.281 10.621l2.9609-31.578c0.039062-4.3984 3.6016-7.9414 8-7.9414h40.48v0.019531c4.0586 0 7.5391 3.1016 7.9414 7.2188l3.1211 32.059c21.52-1.9219 42.5-5.6992 62.762-11.219l-8.0391-30.762c-1.1797-4.0195 0.94141-8.3008 4.9414-9.7383l38.039-13.84c3.8008-1.3789 8.1211 0.32031 9.8984 4.0586l13.738 28.762c19.34-9.0781 37.762-19.82 55.059-32.039l-17.738-25.66c-2.6016-3.3789-2.1016-8.2383 1.1992-11l31.02-26.02c3.1211-2.6211 7.7617-2.4805 10.719 0.44141l22.48 22.039c15-15.02 28.68-31.34 40.859-48.801l-25.602-18.16c-3.3008-2.3398-4.3594-6.8789-2.2812-10.461l19.961-34.578c1.8789-3.8789 6.5195-5.5781 10.461-3.8008l28.641 13.02c8.9219-19.078 16.238-39.078 21.762-59.801l-29.621-8.1211c-4.2812-0.82031-7.1406-4.9219-6.3789-9.2188l7.0195-39.859c0.69922-4 4.3203-6.8984 8.4609-6.6016l31.301 2.4414c0.94141-10.621 1.4219-21.379 1.4219-32.238 0-10.559-0.46094-21.02-1.3398-31.359l-31.16 2.5391c-4.1211 0.39844-7.9414-2.4414-8.6602-6.5781l-7.0195-39.859h0.019531c-0.69922-4 1.7383-7.9609 5.7383-9.0586l30.441-8.4805c-5.4805-20.762-12.762-40.781-21.641-59.898l-28.461 13.059c-3.7617 1.9609-8.4414 0.62109-10.578-3.0781l-20.238-35.059c-2.0391-3.5195-1.1016-8.0781 2.2812-10.5l25.941-18.52c-12.16-17.5-25.84-33.879-40.82-48.941l-22.5 22.238c-2.8594 3.1211-7.7188 3.4609-11 0.71875l-31.02-26.02c-3.1211-2.6016-3.8008-7.1992-1.4805-10.621l18.301-26.66c-17.301-12.262-35.738-23.039-55.102-32.16zm-53.699-41.02 26.16-101.54c-26.699-7.1797-54.32-12.141-82.641-14.68l-10.141 104.34c22.84 2 45.102 6.0195 66.602 11.859zm-270.24 872.42 6.8789-22.422c-6.6406-2.2383-13.219-4.6211-19.719-7.1406l-9.3594 21.48 22.219 8.0781zm12.738-41.559 30.762-100.3c-2.1406-0.73828-4.2617-1.5195-6.3789-2.3008l-41.961 96.238c5.8203 2.2188 11.68 4.3398 17.578 6.3594zm36.641-119.44 7.4414-24.238-1.5391-0.55859-10.16 23.281c1.4219 0.51953 2.8203 1.0195 4.2383 1.5195zm16.82-20.82-7.3594 24c1.0781 0.33984 2.1797 0.69922 3.2617 1.0391l6.3398-24.219-2.2383-0.82031zm-13.219 43.141-30.738 100.24c2.7383 0.85938 5.5 1.7188 8.2617 2.5391l26.559-101.5c-1.3594-0.42188-2.7188-0.83984-4.0586-1.2812zm-36.621 119.38-6.9805 22.738 9.8594 3.5781 6.1602-23.539c-3.0195-0.89844-6.0391-1.8203-9.0586-2.7812zm-47.961 7.8203 9.4805-21.738c-2.4414-1-4.8594-2.0195-7.2812-3.0391l-10.422 21.781 8.2188 3zm17.48-40.078 41.922-96.141c-1.1016-0.44141-2.1992-0.87891-3.3008-1.3398l-45.281 94.719c2.1992 0.94141 4.4219 1.8594 6.6602 2.7617zm49.922-114.5 10.078-23.141-1.8789-0.67969-10.879 22.738c0.87891 0.35938 1.7812 0.71875 2.6602 1.0586zm-71.141 105.26 45.219-94.602c-20.461-9.4219-39.941-20.578-58.238-33.301l-59.621 86.219c22.859 15.879 47.16 29.84 72.66 41.68zm107.72-72.219-26.539 101.44c26.602 6.9609 54.102 11.738 82.281 14.121l9.7617-104.38c-22.441-1.8398-44.32-5.6211-65.5-11.18zm455.74-763.14-16.699 17.941c2.3203 2.1211 4.6211 4.2617 6.9219 6.4219l17.82-17.602-8.0391-6.7383zm-30.32 32.578-71.422 76.738c1.0391 0.94141 2.0781 1.8984 3.1211 2.8594l74.621-73.738c-2.0781-1.9609-4.1797-3.9219-6.3008-5.8398zm-85.059 91.379-16.621 17.859 1.8203 1.5391 17.301-17.102c-0.83984-0.76172-1.6602-1.5195-2.5-2.2812zm-24.281 11.441 16.781-18.039c-1.1211-0.96094-2.2383-1.9219-3.3789-2.8594l-14.641 19.84 1.2383 1.0391zm30.422-32.68 71.461-76.781c-4.6797-4.0781-9.4219-8.0781-14.238-11.98l-62.34 84.441c1.7188 1.4219 3.4219 2.8594 5.1211 4.3203zm85.102-91.422 16.48-17.699-18.102-15.199-14.359 19.461c5.4219 4.3789 10.762 8.8594 15.98 13.441zm-124.42 116.64 14.559-19.699c-0.73828-0.57812-1.4805-1.1602-2.2188-1.7383l-13.84 20.18 1.5195 1.2812zm26.441-35.801 62.281-84.359c-1.8789-1.4609-3.7812-2.9219-5.6992-4.3594l-59.379 86.539c0.94141 0.71875 1.8594 1.4414 2.7812 2.1602zm74.16-100.46 14.539-19.68-6.6992-5.6211-14.102 20.539c2.1016 1.5781 4.1797 3.1602 6.2383 4.7617zm35.359 57.898-74.559 73.68c15.738 15.82 30.078 33 42.879 51.359l85.301-60.961c-16.039-22.879-33.98-44.32-53.621-64.102zm-677.16 757.82 13.898-18.422c-5.4609-4.3789-10.84-8.8789-16.102-13.48l-15.898 16.719 18.102 15.18zm25.961-34.379 63.199-83.719c-1.7617-1.4414-3.5-2.8984-5.2383-4.3594l-72.32 76.059c4.7188 4.1016 9.5 8.1016 14.379 12.02zm75.262-99.68 15.5-20.539-1.2383-1.0391-17.762 18.68c1.1602 0.98047 2.3203 1.9414 3.5 2.8984zm23.16-14.121-15.359 20.359c0.89844 0.69922 1.8203 1.3984 2.7188 2.1016l14.461-20.922-1.8203-1.5195zm-27.422 36.32-63.16 83.66c2.2812 1.7617 4.5781 3.5 6.8789 5.2188l59.66-86.281c-1.1406-0.85938-2.2617-1.7188-3.3789-2.6016zm-75.219 99.641-14.102 18.66 8.0391 6.7383 13.621-19.699c-2.5391-1.8789-5.0586-3.7812-7.5586-5.7188zm-47.5-9.3594 16.102-16.922c-1.9609-1.7812-3.8789-3.5586-5.8008-5.3594l-16.98 16.66 6.6992 5.6211zm29.879-31.422 72.262-76c-0.87891-0.80078-1.7617-1.5781-2.6406-2.3789l-74.922 73.5c1.7617 1.6406 3.5195 3.2617 5.3008 4.8789zm86.059-90.5 17.66-18.559-1.5195-1.2812-18.262 17.922c0.69922 0.64062 1.4219 1.2812 2.1406 1.9219zm-102.84 74.539 74.84-73.422c-0.46094-0.46094-0.94141-0.92188-1.3984-1.3789-15.359-15.359-29.441-32.039-42.02-49.82l-85.52 60.641c16 22.602 33.879 43.781 53.422 63.32 0.21875 0.21875 0.46094 0.46094 0.69922 0.67969zm815.46-592.54-22.102 11.281c1.4609 2.7812 2.8984 5.5781 4.3203 8.3984l23.039-10.578-5.2617-9.1016zm-39.922 20.379-93.379 47.68c0.66016 1.2383 1.3203 2.5 1.9609 3.7383l95.359-43.781c-1.3008-2.5586-2.6016-5.1211-3.9414-7.6406zm-111.2 56.781-21.441 10.941 1.1992 2.0781 21.82-10.02c-0.51953-1-1.0391-2-1.5781-3zm-26.422 2.3203 21.641-11.039c-0.71875-1.2812-1.4609-2.5391-2.1992-3.8008l-20.262 13.441 0.82031 1.4219zm39.461-20.16 93.441-47.719c-3-5.4219-6.1016-10.781-9.3008-16.078l-87.461 58.02c1.1211 1.9219 2.2383 3.8398 3.3203 5.7812zm111.26-56.82 21.84-11.16-11.82-20.48-20.461 13.578c3.6016 5.9414 7.0781 11.961 10.441 18.059zm-156.54 66.898 20.102-13.34c-0.5-0.80078-1-1.6016-1.5-2.3789l-19.602 14zm36.781-24.398 87.379-57.98c-1.2812-2.0195-2.5586-4.0195-3.8594-6.0195l-85.398 61.02c0.62109 0.98047 1.2617 1.9805 1.8789 2.9805zm104.06-69.039 20.719-13.738-4.3789-7.5586-20.602 14.719c1.4414 2.1797 2.8398 4.3789 4.2383 6.6016zm13.5 66.398-95.281 43.762c9.3203 20.078 16.961 41.102 22.738 62.879l101.02-28.102c-7.2812-27.18-16.84-53.441-28.48-78.52zm-895.28 480.42 18.98-12.301c-3.6406-6-7.1797-12.078-10.578-18.219l-20.238 10.059 11.82 20.48zm35.781-23.18 88.02-57.059c-1.1797-1.9805-2.3203-3.9609-3.4609-5.9414l-94 46.738c3.0391 5.4805 6.1992 10.898 9.4414 16.262zm104.82-67.941 22-14.262-0.82031-1.4219-23.52 11.699c0.76172 1.3398 1.5391 2.6602 2.3203 3.9805zm27-5.6211-21.801 14.121c0.62109 0.98047 1.2383 1.9414 1.8594 2.9219l21.121-14.98-1.1992-2.0586zm-38.578 25-87.98 57.02c1.5391 2.4414 3.1211 4.8594 4.7188 7.2812l85.578-60.68c-0.78125-1.1992-1.5391-2.3984-2.3203-3.6211zm-104.76 67.898-19.262 12.48 5.2383 9.0781 19.18-13.602c-1.7383-2.6406-3.4805-5.3008-5.1602-7.9805zm-41.059-25.281 20.48-10.18c-1.2188-2.3398-2.4414-4.6797-3.6406-7.0195l-21.219 9.6602 4.3594 7.5586zm38.398-19.102 93.922-46.699c-0.55859-1.0391-1.1211-2.1016-1.6797-3.1602l-95.559 43.461c1.1016 2.1406 2.1992 4.2812 3.3203 6.3984zm111.84-55.621 23.379-11.621-0.98047-1.7188-23.738 10.801c0.44141 0.83984 0.89844 1.6992 1.3594 2.5391zm-122.18 34.859 95.461-43.398c-9.5-20.121-17.32-41.219-23.219-63.078l-101.12 27.738c7.3984 27.281 17.102 53.602 28.879 78.738zm969.36-278.08-24.922 3.0781c0.42188 3.1016 0.80078 6.1992 1.1602 9.3008l25.559-2.0781-1.8203-10.301zm-44.762 5.5391-104.04 12.859c0.19922 1.3789 0.37891 2.7617 0.55859 4.1406l104.56-8.5195c-0.33984-2.8398-0.67969-5.6602-1.0781-8.4805zm-123.9 15.32-23.578 2.9219 0.39844 2.3203 23.621-1.9219c-0.14062-1.1016-0.30078-2.1992-0.44141-3.3203zm-25.32-6.9414 23.801-2.9414c-0.23828-1.4414-0.48047-2.8594-0.73828-4.2812l-23.34 5.6211 0.28125 1.6016zm43.68-5.3984 104.12-12.879c-0.96094-6.1211-2.0195-12.219-3.1992-18.262l-102.04 24.621c0.39844 2.1602 0.78125 4.3398 1.1406 6.5195zm123.98-15.34 24.621-3.0391-4.1016-23.262-24.121 5.8203c1.3398 6.7812 2.5391 13.621 3.6016 20.5zm-169.66 9.3008 23.16-5.5781c-0.19922-0.92188-0.37891-1.8398-0.57812-2.7617l-22.922 6.3789zm42.621-10.281 101.96-24.602c-0.5-2.3398-1.0195-4.6602-1.5586-6.9805l-101.12 28.141c0.26172 1.1406 0.5 2.2812 0.73828 3.4219zm121.4-29.281 24.398-5.8789-1.5195-8.6211-24.621 6.8398c0.60156 2.5391 1.1797 5.1016 1.7188 7.6602zm-10.121 67-104.48 8.5195c0.92188 10.879 1.3984 21.879 1.3984 33 0 11.379-0.5 22.66-1.4805 33.801l104.52 8.1406c1.1797-13.82 1.7812-27.801 1.7812-41.941 0-13.98-0.60156-27.82-1.7617-41.52zm-1005.2 145.18 21.719-5c-1.3594-6.8789-2.5781-13.801-3.6406-20.781l-22.18 2.5 4.1016 23.262zm41.219-9.4805 102.24-23.5c-0.42188-2.2617-0.82031-4.5195-1.1992-6.8008l-104.3 11.781c0.96094 6.2188 2.0586 12.398 3.2617 18.539zm121.76-28 25.82-5.9414-0.28125-1.6016-26.34 2.9805c0.26172 1.5195 0.53906 3.0391 0.82031 4.5586zm27.559 3.8984-25.602 5.8789c0.23828 1.1406 0.48047 2.2617 0.73828 3.3984l25.281-6.9414-0.42188-2.3594zm-45.102 10.379-102.18 23.5c0.62109 2.8398 1.2617 5.6602 1.9219 8.4805l101.2-27.762c-0.32031-1.3984-0.62109-2.8008-0.92188-4.2188zm-121.68 27.98-22 5.0586 1.8203 10.34 22.301-6.1211c-0.73828-3.0781-1.4414-6.1797-2.1211-9.2812zm-29.578-37.898 22.48-2.5391c-0.33984-2.6016-0.67969-5.2188-0.98047-7.8398l-23 1.8008 1.5195 8.6016zm42.359-4.7812 104.2-11.762c-0.16016-1.1797-0.32031-2.3594-0.48047-3.5391l-104.64 8.1406c0.28125 2.3984 0.60156 4.7812 0.92188 7.1602zm124.08-14 26.16-2.9609-0.33984-1.9414-26.219 2.0391c0.12109 0.96094 0.26172 1.8984 0.39844 2.8398zm-126.64-9.0586 104.52-8.1406c-1.0195-11.398-1.5391-22.922-1.5391-34.578 0-11 0.46094-21.879 1.3789-32.621l-104.48-8.5195c-1.1406 13.559-1.7188 27.281-1.7188 41.141 0 14.398 0.62109 28.641 1.8594 42.719zm1006.2 70.219-24.539-5.6406c-0.66016 3.0781-1.3594 6.1406-2.0586 9.1797l24.781 6.8008 1.8203-10.34zm-44.039-10.121-102.2-23.5c-0.28125 1.3789-0.57812 2.7383-0.89844 4.1211l101.2 27.762c0.64063-2.7812 1.2812-5.5781 1.8789-8.3789zm-121.7-27.98-23.059-5.3008-0.42188 2.3594 22.781 6.2383c0.23828-1.1016 0.48047-2.1992 0.69922-3.3008zm-21.34-15.141 23.238 5.3398c0.26172-1.4219 0.5-2.8398 0.73828-4.2617l-23.719-2.6797-0.28125 1.6016zm42.762 9.8398 102.26 23.52c1.1602-6.0391 2.2188-12.121 3.1602-18.238l-104.28-11.781c-0.35938 2.1797-0.73828 4.3398-1.1406 6.5zm121.76 28 24.262 5.5781 4.1016-23.262-24.82-2.8008c-1.0391 6.8789-2.2383 13.699-3.5586 20.48zm-162.5-49.281 23.5 2.6602c0.12109-0.92188 0.26172-1.8398 0.37891-2.7617l-23.539-1.8398zm43.379 4.8984 104.2 11.762c0.32031-2.3398 0.60156-4.6992 0.87891-7.0586l-104.62-8.1406c-0.14062 1.1602-0.30078 2.3008-0.46094 3.4414zm124.08 14 25.141 2.8398 1.5195-8.6016-25.699-2c-0.30078 2.6016-0.62109 5.1797-0.96094 7.7617zm-32.219 59.5-101.12-27.738c-5.8008 21.762-13.48 42.738-22.84 62.801l95.441 43.398c11.641-25.059 21.219-51.301 28.52-78.461zm-994.26-207.36 21.98 2.7188c1.0781-6.9805 2.3008-13.898 3.6602-20.801l-21.539-5.1992-4.1016 23.262zm41.84 5.1797 104.12 12.879c0.37891-2.2812 0.78125-4.5586 1.1797-6.8203l-102.04-24.621c-1.1992 6.1406-2.2812 12.32-3.2617 18.559zm123.98 15.34 26.441 3.2617 0.28125-1.6016-25.922-6.2617c-0.28125 1.5195-0.53906 3.0391-0.80078 4.5781zm24.699 13.121-26.199-3.2383c-0.16016 1.1406-0.32031 2.2812-0.46094 3.4219l26.262 2.1406 0.39844-2.3203zm-46.059-5.6992-104.06-12.859c-0.37891 2.8594-0.73828 5.7188-1.0781 8.5781l104.56 8.5195c0.17969-1.4219 0.35938-2.8398 0.55859-4.2383zm-123.9-15.32-22.301-2.7617-1.8203 10.301 22.941 1.8789c0.35938-3.1406 0.76172-6.2812 1.1797-9.4219zm-14.719-45.719 21.82 5.2617c0.55859-2.5781 1.1406-5.1602 1.7617-7.7383l-22.059-6.1406-1.5195 8.6211zm41.281 9.9609 101.96 24.578c0.23828-1.1797 0.5-2.3398 0.76172-3.5195l-101.12-28.141c-0.53906 2.3398-1.0781 4.6992-1.5781 7.0586zm121.4 29.281 25.738 6.1992 0.33984-1.9609-25.48-7.1016c-0.19922 0.94141-0.39844 1.8984-0.60156 2.8398zm-115.94-51.82 101.02 28.102c5.8008-21.922 13.52-43.059 22.922-63.238l-95.281-43.762c-11.719 25.199-21.34 51.559-28.66 78.879zm921.7 410.16-21.141-13.699c-1.6797 2.6602-3.3594 5.3008-5.0781 7.9219l20.98 14.879 5.2383-9.0781zm-37.922-24.578-87.98-57.02c-0.73828 1.1797-1.4805 2.3789-2.2383 3.5586l85.602 60.699c1.5586-2.3984 3.1016-4.8008 4.6211-7.2188zm-104.78-67.898-19.898-12.898-1.1992 2.0586 19.301 13.68c0.60156-0.94141 1.1992-1.8984 1.8008-2.8594zm-14.898-21.539 20.059 13c0.73828-1.2383 1.4609-2.5 2.1602-3.7617l-21.422-10.641-0.82031 1.4219zm36.859 23.898 88.039 57.059c3.1797-5.3008 6.2617-10.641 9.2383-16.059l-93.98-46.738c-1.0781 1.9219-2.1797 3.8398-3.3008 5.7383zm104.84 67.941 20.898 13.539 11.82-20.461-22.34-11.121c-3.3398 6.0781-6.8008 12.102-10.359 18.039zm-135.88-101.9 21.238 10.559c0.44141-0.82031 0.87891-1.6406 1.3008-2.4805l-21.539-9.8008-0.98047 1.7188zm39.141 19.461 93.898 46.699c1.1016-2.1016 2.1797-4.2188 3.2617-6.3398l-95.539-43.441c-0.53906 1.0391-1.0781 2.0586-1.6211 3.0781zm111.82 55.602 22.641 11.262 4.3594-7.5586-23.441-10.66c-1.1797 2.3398-2.3594 4.6602-3.5781 6.9609zm-50.68 44.879-85.52-60.641c-12.801 18.32-27.16 35.461-42.898 51.238l74.82 73.398c19.621-19.738 37.559-41.16 53.578-64zm-863.38-534.9 19.738 10.078c3.4219-6.1602 6.9414-12.262 10.602-18.262l-18.52-12.281-11.82 20.48zm37.559 19.18 93.441 47.719c1.1406-2.0195 2.3008-4.0195 3.4805-6l-87.461-58.02c-3.2617 5.3594-6.3984 10.801-9.4609 16.301zm111.28 56.82 23.719 12.121 0.82031-1.4219-22.199-14.738c-0.78125 1.3398-1.5586 2.6797-2.3398 4.0391zm18.738 20.738-23.559-12.02c-0.53906 1.0195-1.1016 2.0586-1.6406 3.0781l23.98 11.02 1.1992-2.0781zm-41.359-21.121-93.379-47.68c-1.3594 2.5586-2.6797 5.1406-4 7.7188l95.359 43.781c0.66016-1.2812 1.3398-2.5586 2.0195-3.8398zm-111.2-56.781-20-10.219-5.2617 9.1016 20.879 9.5781c1.4414-2.8398 2.8789-5.6602 4.3594-8.4805zm1.8008-47.98 18.801 12.48c1.4219-2.2383 2.8594-4.4414 4.3008-6.6602l-18.738-13.379-4.3789 7.5586zm35.461 23.52 87.379 57.961c0.64062-1.0195 1.2812-2.0195 1.9219-3.0391l-85.379-61.02c-1.3203 2.0195-2.6211 4.0391-3.9219 6.0781zm104.06 69.039 22.039 14.621 1-1.7188-21.48-15.34c-0.51953 0.82031-1.0391 1.6406-1.5391 2.4414zm-91.16-88.301 85.301 60.941c12.859-18.34 27.262-35.52 43.059-51.32l0.17969-0.17969-74.559-73.68c-19.762 19.801-37.82 41.281-53.961 64.219zm725.68 700.56-15.078-19.961c-2.4805 1.9219-4.9609 3.8398-7.4805 5.7188l14.52 20.98zm-27.121-35.922-63.18-83.68c-1.1016 0.85938-2.1992 1.7188-3.3203 2.5781l59.68 86.32c2.2812-1.7188 4.5586-3.4609 6.8008-5.2188zm-75.219-99.641-14.379-19.039-1.8203 1.5195 13.539 19.602c0.87891-0.67969 1.7812-1.3789 2.6602-2.0781zm-6.7188-25.48 14.48 19.18c1.1211-0.92188 2.2188-1.8594 3.3203-2.8008l-16.559-17.422-1.2383 1.0391zm26.539 35.16 63.219 83.738c4.8008-3.8984 9.5195-7.8984 14.16-11.98l-72.301-76.039c-1.6797 1.4414-3.3594 2.8594-5.0586 4.2812zm75.281 99.699 14.922 19.762 18.102-15.18-17.121-18c-5.1992 4.5781-10.5 9.0586-15.879 13.441zm-92.922-142.34 16.398 17.262c0.69922-0.62109 1.3789-1.2617 2.0781-1.8789l-16.961-16.641-1.5195 1.2812zm30.18 31.738 72.262 75.98c1.7617-1.6016 3.5-3.2188 5.2383-4.8594l-74.898-73.48c-0.85938 0.80078-1.7188 1.5781-2.5781 2.3594zm86.039 90.48 17.359 18.262 6.6992-5.6211-18.32-17.98c-1.8984 1.8008-3.8008 3.5781-5.7383 5.3398zm-62.879 24.961-59.621-86.219c-18.16 12.82-37.5 24.102-57.82 33.641l45.219 94.602c25.34-11.961 49.5-26.039 72.219-42zm-628.5-798.14 15.281 16.422c5.3008-4.6211 10.699-9.1211 16.18-13.52l-13.359-18.078-18.102 15.199zm28.922 31.059 71.48 76.781c1.7383-1.5 3.5195-2.9609 5.2812-4.4219l-62.34-84.422c-4.8789 3.9414-9.6992 7.9609-14.441 12.059zm85.121 91.441 17.98 19.301 1.2383-1.0391-15.68-21.219c-1.1797 0.98047-2.3594 1.9805-3.5391 2.9805zm10.32 25.719-17.84-19.16c-0.85938 0.78125-1.7188 1.5391-2.5586 2.3203l18.578 18.359 1.8203-1.5391zm-31.461-33.801-71.441-76.738c-2.1406 1.9414-4.2617 3.8984-6.3789 5.8789l74.621 73.762c1.0586-0.98047 2.1211-1.9414 3.1797-2.8984zm-85.059-91.379-15.48-16.621-8.0391 6.7383 16.52 16.34c2.3008-2.1797 4.6406-4.3203 6.9805-6.4609zm17.941-44.66 13.539 18.34c2.1016-1.6016 4.1992-3.1992 6.3203-4.7812l-13.16-19.18zm25.422 34.441 62.281 84.359c0.94141-0.73828 1.8789-1.4609 2.8398-2.1797l-59.359-86.539c-1.9219 1.4414-3.8398 2.8984-5.7617 4.3594zm74.16 100.44 15.559 21.059 1.5195-1.2812-14.781-21.559c-0.76172 0.57812-1.5195 1.1797-2.2812 1.7617zm-55.48-114.16 59.301 86.441c18.281-12.82 37.738-24.078 58.18-33.578l-44.879-94.762c-25.48 11.898-49.781 25.941-72.621 41.898zm442.18 906.34-7.1992-23.48c-2.9805 0.96094-6 1.8984-9 2.8203l6.3398 24.262 9.8594-3.5781zm-13.078-42.621-30.738-100.26c-1.3398 0.44141-2.6797 0.87891-4.0195 1.3008l26.559 101.54c2.7383-0.83984 5.4805-1.6992 8.1992-2.5781zm-36.621-119.38-7.1211-23.238-2.2383 0.82031 6.1406 23.461c1.0781-0.33984 2.1602-0.69922 3.2188-1.0586zm2.2617-26.66 7.1797 23.379c1.3789-0.5 2.7617-1 4.1406-1.5195l-9.7812-22.422-1.5391 0.55859zm13.039 42.539 30.762 100.32c5.8594-2.0391 11.68-4.1797 17.441-6.4414l-41.941-96.199c-2.0781 0.78125-4.1797 1.5586-6.2812 2.3008zm36.641 119.46 7.1211 23.238 22.219-8.0781-9.7617-22.379c-6.4609 2.5391-13 4.9414-19.578 7.2188zm-38.762-165.98 9.6797 22.199c0.87891-0.35937 1.7383-0.71875 2.6211-1.0781l-10.422-21.801zm17.68 40.539 41.922 96.121c2.1992-0.92188 4.3984-1.8398 6.6016-2.8008l-45.262-94.68c-1.0781 0.46094-2.1602 0.89844-3.2617 1.3398zm49.922 114.46 9.8984 22.699 8.2188-3-10.879-22.781c-2.3984 1.0391-4.8203 2.0586-7.2383 3.0781zm-67.699 1.9609-26.539-101.44c-21.281 5.7812-43.301 9.7617-65.898 11.781l10.141 104.34c28.199-2.5586 55.699-7.5195 82.301-14.68zm-317.74-965.38 8.8203 20.84c6.5391-2.5195 13.141-4.8984 19.82-7.1406l-6.4219-21.781-22.219 8.0781zm16.641 39.281 40.922 96.621c2.1406-0.80078 4.3008-1.5781 6.4609-2.3398l-29.699-100.66c-5.9414 2.0195-11.84 4.1406-17.68 6.3789zm48.719 115.06 10.199 24.059 1.5391-0.55859-7.3984-25.078c-1.4414 0.51953-2.8789 1.0391-4.3203 1.5586zm0.82031 27.48-10.121-23.898c-1.0781 0.42188-2.1406 0.85938-3.1992 1.3008l11.078 23.422 2.2383-0.82031zm-17.922-42.32-40.879-96.559c-2.6797 1.0781-5.3398 2.1992-8 3.3398l44.922 94.859c1.3203-0.53906 2.6406-1.0781 3.9805-1.6211zm-48.68-114.98-8.9414-21.102-9.8594 3.5781 10.02 21.18c2.8984-1.2383 5.8398-2.4805 8.7617-3.6602zm32.039-36.02 6.5195 22.121c2.5195-0.80078 5.0391-1.5586 7.5781-2.3203l-5.8789-22.781-8.2188 3zm12.18 41.301 29.68 100.58c1.1406-0.35938 2.2812-0.71875 3.4219-1.0781l-26.199-101.64c-2.3008 0.69922-4.6211 1.3984-6.8984 2.1211zm35.34 119.78 7.3398 24.859 1.8789-0.67969-6.4609-25.059c-0.92187 0.28125-1.8398 0.57812-2.7617 0.87891zm-13.102-126.22 26.16 101.54c21.379-5.6797 43.48-9.5781 66.16-11.48l-9.7617-104.38c-28.281 2.4219-55.879 7.2812-82.578 14.32zm105.48 1002.6 1.2383-24.199c-3.1602-0.12109-6.3008-0.26172-9.4414-0.42188l-2.3008 24.621zm2.2812-44.18 5.3984-104.7c-1.4219-0.039062-2.8398-0.10156-4.2383-0.16016l-9.7617 104.48c2.8594 0.14062 5.7383 0.28125 8.6211 0.37891zm6.4219-124.68 1.2617-24.602h-2.3984l-2.2812 24.48c1.1406 0.039062 2.2812 0.078125 3.4219 0.12109zm11.262-24.602-1.2812 24.738h0.64062c1.2812 0 2.5391 0 3.8008-0.019531l-1.5391-24.719zm-2.3008 44.738-5.3984 104.78c2.3398 0.039063 4.6992 0.058594 7.0586 0.058594 3.8594 0 7.7188-0.039062 11.559-0.14062l-6.5195-104.72c-1.6797 0.019531-3.3594 0.039063-5.0586 0.039063h-1.6602zm-6.4219 124.76-1.2383 23.941h23.621l-1.5-24.039c-4.2617 0.10156-8.5195 0.16016-12.82 0.16016-2.6992 0-5.3984-0.019531-8.1016-0.058593zm20.359-169.5 1.5195 24.48c0.94141-0.039062 1.8789-0.078125 2.8398-0.12109l-2.3594-24.359zm2.7617 44.461 6.5 104.64c2.3984-0.10156 4.7812-0.21875 7.1602-0.35938l-10.141-104.44c-1.1797 0.058594-2.3398 0.10156-3.5195 0.16016zm7.7617 124.6 1.5195 24.379h8.7383l-2.3984-24.801c-2.6211 0.16016-5.2383 0.30078-7.8594 0.39844zm-40.441-994.04c-2.8789 0.10156-5.7617 0.23828-8.6406 0.37891l9.7617 104.48c1.4219-0.058594 2.8398-0.12109 4.2812-0.16016l-5.3984-104.7zm7.7617-43.379 1.1992 23.141c2.8984-0.039063 5.8008-0.078126 8.7188-0.078126 4.1016 0 8.1992 0.058594 12.281 0.14063l1.4414-23.219h-23.621zm8.6602 167.9 1.3203 25.559h1.6211l1.5781-25.539c-1.0781-0.019531-2.1797-0.019531-3.2812-0.019531h-1.2617zm-8.6797 25.559-1.3008-25.379c-1.1406 0.039062-2.3008 0.078124-3.4414 0.12109l2.3594 25.262h2.3984zm-8.7617-170.04-1.1992-23.422h-10.5l2.2188 23.84c3.1602-0.17969 6.3008-0.32031 9.4805-0.44141zm33.199 124.76c1.1797 0.039062 2.3789 0.10156 3.5586 0.14062l10.141-104.44c-2.3984-0.14062-4.7812-0.26172-7.1797-0.35938l-6.5195 104.64zm9.2188-148.16-1.4609 23.559c2.6406 0.12109 5.2617 0.23828 7.8789 0.39844l2.3203-23.961h-8.7383zm-10.461 168.14-1.5781 25.32h1.9805l2.4414-25.199c-0.96094-0.039062-1.8984-0.078124-2.8594-0.12109z" fill="#fff"/>
</svg>
