<?xml version="1.0" encoding="UTF-8"?>
<svg width="1200pt" height="1200pt" version="1.1" viewBox="0 0 1200 1200" xmlns="http://www.w3.org/2000/svg">
 <g fill="#fff">
  <path d="m875 181.25h-550c-46.395 0.054688-90.875 18.512-123.68 51.32-32.809 32.805-51.266 77.285-51.32 123.68v350c0.054688 46.395 18.512 90.875 51.32 123.68 32.805 32.809 77.285 51.266 123.68 51.32h138.28l117.53 141.02c4.75 5.6914 11.777 8.9805 19.188 8.9805 7.4141 0 14.441-3.2891 19.188-8.9805l117.54-141.02h138.28c46.395-0.054688 90.875-18.512 123.68-51.316 32.805-32.809 51.262-77.289 51.316-123.68v-350c-0.054688-46.395-18.512-90.875-51.32-123.68-32.805-32.809-77.285-51.266-123.68-51.32zm125 525c-0.035156 33.141-13.215 64.914-36.648 88.352-23.438 23.434-55.211 36.613-88.352 36.648h-150c-7.4141 0-14.445 3.2891-19.191 8.9844l-105.81 126.95-105.81-126.95c-4.7461-5.6953-11.777-8.9883-19.191-8.9844h-150c-33.141-0.035156-64.914-13.215-88.352-36.648-23.434-23.438-36.613-55.211-36.648-88.352v-350c0.035156-33.141 13.215-64.914 36.648-88.352 23.438-23.434 55.211-36.613 88.352-36.648h550c33.141 0.035156 64.914 13.215 88.352 36.648 23.434 23.438 36.613 55.211 36.648 88.352z"/>
  <path d="m600 331.25c-26.512 0.03125-51.93 10.574-70.676 29.324-18.75 18.746-29.293 44.164-29.324 70.676 0 8.9297 4.7656 17.184 12.5 21.652 7.7344 4.4648 17.266 4.4648 25 0 7.7344-4.4688 12.5-12.723 12.5-21.652 0-17.863 9.5312-34.371 25-43.301 15.469-8.9336 34.531-8.9336 50 0 15.469 8.9297 25 25.438 25 43.301 0 27.297-12.059 36.277-30.324 49.875-18.848 14.066-44.676 33.305-44.676 75.125 0 8.9297 4.7656 17.184 12.5 21.652 7.7344 4.4648 17.266 4.4648 25 0 7.7344-4.4688 12.5-12.723 12.5-21.652 0-16.09 7.0781-22.02 24.559-35.035 21.293-15.867 50.441-37.574 50.441-89.965-0.03125-26.512-10.574-51.93-29.324-70.676-18.746-18.75-44.164-29.293-70.676-29.324z"/>
  <path d="m600 631.25c-13.262 0-25.98 5.2695-35.355 14.645s-14.645 22.094-14.645 35.355 5.2695 25.98 14.645 35.355 22.094 14.645 35.355 14.645 25.98-5.2695 35.355-14.645 14.645-22.094 14.645-35.355c-0.011719-13.258-5.2852-25.965-14.66-35.34s-22.082-14.648-35.34-14.66z"/>
 </g>
</svg>
