<?xml version="1.0" encoding="UTF-8"?>
<svg width="1200pt" height="1200pt" version="1.1" viewBox="0 0 1200 1200" xmlns="http://www.w3.org/2000/svg">
 <path d="m602.77 570.12-373.41-174.12-25.355 54.379 327.78 152.85-327.78 152.84 25.355 54.379 373.41-174.12 379.81 177.11 25.359-54.379-334.18-155.83 327.78-152.85-25.355-54.379zm389.95-221.62-0.007813-0.015625 0.035157 0.003907 1.0547-0.49219 0.31641 0.67969 119.1 16.438-63.961 101.8 0.33203 0.71484-288.28 134.43 288.28 134.43-0.23438 0.50391 64.387 102.47-119.88 16.543-0.054687 0.11328-0.17578-0.082032-0.39062 0.054688 0.089843-0.19531-388.19-181.02-388.13 180.99 0.10547 0.22266-0.44922-0.0625-0.19141 0.089844-0.058594-0.125-119.8-16.531 64.34-102.41-0.26562-0.57031 288.29-134.43-288.16-134.37-0.085938 0.1875-64.719-103 120.34-16.609 0.12891-0.26953 388.66 181.24z" fill="#fff"/>
</svg>
