<?xml version="1.0" encoding="UTF-8"?>
<svg width="1200pt" height="1200pt" version="1.1" viewBox="0 0 1200 1200" xmlns="http://www.w3.org/2000/svg">
 <path d="m620.1 12.059 329.65 180.91 205.02 110.55 22.109 12.059v136.68h-128.64v528.64h130.65v219.1h-1157.8v-219.1h130.65v-528.64h-130.66v-136.68l24.121-12.059 203.02-110.55 331.66-180.91 20.102-12.059 20.102 12.059zm-383.92 968.84h207.04v-528.64h-207.04zm293.47 0h140.7v-528.64h-140.7zm-377.89-613.07h940.7v-2.0117l-182.91-98.492-309.55-170.86-309.55 170.86h-2.0117l-180.91 98.492v2.0117zm810.05 613.07v-528.64h-207.04v528.64zm130.65 84.422h-986.94v48.242h986.93v-48.242z" fill="#fff"/>
</svg>
