<?xml version="1.0" encoding="UTF-8"?>
<svg width="1200pt" height="1200pt" version="1.1" viewBox="0 0 1200 1200" xmlns="http://www.w3.org/2000/svg">
 <path d="m359.48 978.52-75 168.75c-8.3984 18.898 0.13281 41.082 19.051 49.5 18.898 8.3984 41.082-0.13281 49.5-19.051l75-168.75c8.3984-18.898-0.13281-41.082-19.051-49.5-18.898-8.3984-41.082 0.13281-49.5 19.051zm262.5 0-75 168.75c-8.3984 18.898 0.13281 41.082 19.051 49.5 18.898 8.3984 41.082-0.13281 49.5-19.051l75-168.75c8.3984-18.898-0.13281-41.082-19.051-49.5-18.898-8.3984-41.082 0.13281-49.5 19.051zm-323.44-191.02-51.562 116.02c-8.3984 18.898 0.13281 41.082 19.051 49.5 18.898 8.3984 41.082-0.13281 49.5-19.051l65.102-146.48h180.41l-51.562 116.02c-8.3984 18.898 0.13281 41.082 19.051 49.5 18.898 8.3984 41.082-0.13281 49.5-19.051l65.102-146.48h180.41l-51.562 116.02c-8.3984 18.898 0.13281 41.082 19.051 49.5 18.898 8.3984 41.082-0.13281 49.5-19.051l65.102-146.48h31.875c144.88 0 262.5-117.62 262.5-262.5 0-97.332-53.082-182.36-131.87-227.7 0.41406-5.2891 0.61719-10.648 0.61719-16.051 0-113.83-92.418-206.25-206.25-206.25-13.406 0-26.512 1.293-39.207 3.7305-61.105-49.238-138.79-78.73-223.29-78.73-164.2 0-302.59 111.34-343.76 262.57-141.98 3.3203-256.24 119.62-256.24 262.43 0 144.88 117.62 262.5 262.5 262.5h36.039zm583.33-75h55.633c103.48 0 187.5-84.02 187.5-187.5 0-76.969-46.48-143.16-112.86-172.03-16.52-7.1992-25.594-25.105-21.617-42.676 2.1172-9.3359 3.2266-19.07 3.2266-29.043 0-72.43-58.82-131.25-131.25-131.25-13.238 0-26.008 1.9492-38.043 5.6055-12.602 3.8047-26.27 0.75-36.02-8.0625-49.895-45.074-115.99-72.543-188.44-72.543-138.66 0-254.02 100.54-277.07 232.65-3.375 19.426-21.227 32.906-40.82 30.863-6.4492-0.67578-12.992-1.0117-19.613-1.0117-103.48 0-187.5 84.02-187.5 187.5s84.02 187.5 187.5 187.5h93.543 0.44922 262.05 0.44922 262.05 0.44922z" fill="#fff" fill-rule="evenodd"/>
</svg>
