<?xml version="1.0" encoding="UTF-8"?>
<svg width="1200pt" height="1200pt" version="1.1" viewBox="0 0 1200 1200" xmlns="http://www.w3.org/2000/svg">
 <g>
  <rect width="1200" height="1200" fill="#fff"/>
  <path d="m864.5 448.86c-9.0703-13.602-27.961-16.625-40.809-7.5586-13.602 9.0703-17.383 28.719-7.5586 42.32 34.762 49.121 52.898 111.09 46.855 176.84-11.332 124.7-111.84 225.2-236.54 237.3-164.75 15.871-303.8-120.91-289.44-285.66 11.336-133.76 123.94-238.05 257.7-241.07v48.367c0 17.383 19.648 27.961 34.008 18.895l124.69-77.84c14.359-9.0703 14.359-29.473 0-37.785l-124.7-77.84c-15.113-9.0703-34.008 1.5117-34.008 18.895v48.367c-161.72 2.2617-296.24 121.67-315.89 283.39-24.184 201.02 137.54 371.81 336.29 363.5 164.75-7.5586 300.02-141.32 308.33-306.06 3.7773-76.328-18.895-146.61-58.949-204.04z"/>
 </g>
</svg>
