<?xml version="1.0" encoding="UTF-8"?>
<svg width="1200pt" height="1200pt" version="1.1" viewBox="0 0 1200 1200" xmlns="http://www.w3.org/2000/svg">
 <g fill="#fff" fill-rule="evenodd">
  <path d="m761.22 618.29h-392.68c-15.121 0-28.535-7.8047-36.098-20.73s-7.5625-28.535 0.24219-41.707l196.34-336.83c7.5625-12.926 20.977-20.488 35.855-20.488s28.293 7.8047 35.855 20.488l196.34 336.83c7.5625 12.926 7.5625 28.535 0.24219 41.707-7.5547 12.926-20.973 20.73-36.094 20.73zm-196.34-391.71c-2.1953 0-8.0469 0.73047-11.707 6.5859l-196.34 336.83c-3.4141 6.0977-1.2188 11.465 0 13.414 1.2188 1.9531 4.6328 6.8281 11.707 6.8281h392.68c7.0742 0 10.488-4.6328 11.707-6.8281 1.2188-1.9531 3.4141-7.3164 0-13.414l-196.59-336.59c-3.4141-6.0977-9.2656-6.8281-11.461-6.8281z"/>
  <path d="m564.88 470.73c-7.8047 0-14.145-6.3398-14.145-14.145v-118.54c0-7.8047 6.3398-14.145 14.145-14.145 7.8047 0 14.145 6.3398 14.145 14.145v118.54c0 7.8047-6.3398 14.145-14.145 14.145z"/>
  <path d="m564.88 542.68c-7.8047 0-14.145-6.3398-14.145-14.145v-9.2695c0-7.8047 6.3398-14.145 14.145-14.145 7.8047 0 14.145 6.3398 14.145 14.145v9.2695c0 7.8008-6.3398 14.145-14.145 14.145z"/>
  <path d="m520.49 958.54h-2.9258l-242.44-2.1953c-7.8047 0-13.902-6.3398-13.902-14.145 0-7.8047 6.3398-13.902 14.145-13.902h0.24219l242.44 2.1953c57.316 0.48828 113.41-14.879 162.2-44.633l323.9-197.56c11.465-6.8281 18.047-19.023 18.047-32.195 0-12.438-5.8555-23.902-16.34-30.977-12.195-8.5352-28.293-9.0234-41.219-1.2188-39.023 23.66-91.953 56.586-159.27 98.047-32.684 20.242-68.293 42.195-107.07 66.098-6.5859 4.1445-15.367 1.9531-19.27-4.6328-4.1445-6.5859-1.9531-15.367 4.6328-19.27 38.781-23.902 74.391-45.855 107.07-66.098 67.316-41.465 120.24-74.391 159.27-98.047 22.195-13.66 50.488-12.684 71.707 1.9531 17.805 12.195 28.293 32.438 28.293 54.145 0 23.172-11.707 44.145-31.707 56.34l-323.9 197.56c-52.191 31.707-112.43 48.535-173.9 48.535z"/>
  <path d="m638.05 833.41h-0.48828l-154.14-1.2188c-7.8047 0-13.902-6.3398-13.902-14.145 0-7.8047 6.3398-13.902 14.145-13.902h0.24219l154.14 1.2188c19.27 0.24219 35.855-13.414 39.758-32.195 0.48828-1.9531 0.73047-3.9023 0.73047-5.8555 0.97656-16.098-8.0469-31.219-22.926-38.293-5.6094-2.6836-11.465-4.1445-17.562-4.1445l-178.54-1.4648h-11.953-0.24219c-27.316-0.48828-110.73-1.9531-161.71 49.27-5.3672 5.6094-14.391 5.6094-19.758 0-5.6094-5.3672-5.6094-14.391 0-19.758 24.879-25.121 58.535-42.438 99.512-50.977 31.219-6.5859 60.488-7.0742 82.438-6.5859h11.953l178.54 1.4648c10.488 0 20.242 2.4375 29.512 6.8281 25.121 12.195 40.242 37.805 38.781 65.121-0.24219 3.1719-0.48828 6.5859-1.2188 9.7578-6.8242 31.953-35.117 54.879-67.312 54.879z"/>
  <path d="m261.71 1005.1h-82.926c-15.121 0-27.562-12.438-27.562-27.562v-260.24c0-15.121 12.438-27.562 27.562-27.562h82.926c15.121 0 27.562 12.438 27.562 27.562v260.24c0 15.125-12.441 27.562-27.562 27.562zm-82.438-28.293h81.953l-0.003906-259.02h-81.949z"/>
 </g>
</svg>
