<?xml version="1.0" encoding="UTF-8"?>
<svg width="1200pt" height="1200pt" version="1.1" viewBox="0 0 1200 1200" xmlns="http://www.w3.org/2000/svg">
 <g fill="#fff">
  <path d="m318.24 257.04c-26.473-0.125-51.91 10.277-70.707 28.926-18.797 18.645-29.406 44-29.492 70.473-0.082031 26.477 10.363 51.898 29.039 70.664 18.676 18.766 44.047 29.336 70.52 29.379 26.477 0.039062 51.883-10.445 70.617-29.152 18.738-18.703 29.266-44.094 29.266-70.566 0.0625-26.387-10.355-51.715-28.969-70.414-18.609-18.703-43.887-29.242-70.273-29.309zm0 151.32c-13.742 0.12891-26.973-5.2188-36.766-14.863-9.793-9.6445-15.348-22.789-15.434-36.531-0.082031-13.746 5.3047-26.961 14.98-36.723 9.6719-9.7656 22.836-15.277 36.578-15.32 13.746-0.042969 26.941 5.3867 36.676 15.09 9.7344 9.7031 15.207 22.883 15.207 36.629-0.03125 13.59-5.4375 26.617-15.035 36.238-9.6016 9.6211-22.613 15.059-36.207 15.121z"/>
  <path d="m1109.5 681.48c0-60.469-24.02-118.46-66.777-161.22-42.762-42.758-100.75-66.777-161.22-66.777s-118.46 24.02-161.22 66.777c-42.758 42.762-66.781 100.75-66.781 161.22-3.0391 56.051 13.977 111.35 48 156l90.48 121.2-438-253.68 144-192c34.023-44.648 51.039-99.949 48-156-3.3633-58.457-28.758-113.47-71.066-153.95-42.305-40.484-98.383-63.426-156.93-64.211-58.551 0.78516-114.63 23.727-156.93 64.211-42.309 40.48-67.703 95.492-71.066 153.95-3.0273 56.051 13.988 111.35 48 156l160.92 214.08c3.0586 3.8945 7.25 6.7461 12 8.1602l559.32 324h-0.003907c5.082 2.9375 11.059 3.9141 16.809 2.7422s10.867-4.4102 14.395-9.1016l159.84-215.04c34.188-44.711 51.297-100.16 48.238-156.36zm-932.4-197.64c-27.344-35.578-41.086-79.75-38.762-124.56 5.7617-85.199 74.52-173.4 180-173.4 105.48-0.003906 173.64 88.195 179.64 173.52 2.3359 44.812-11.41 88.988-38.762 124.56l-141 188.64zm845.76 325.32-141.12 188.76-141-188.76c-27.344-35.578-41.086-79.75-38.762-124.56 5.7617-85.199 74.52-173.4 180-173.4 105.48-0.003906 174 88.797 179.64 173.4 2.3359 44.812-11.41 88.984-38.762 124.56z"/>
  <path d="m881.76 582.36c-26.477-0.125-51.914 10.277-70.711 28.926-18.797 18.645-29.406 44-29.492 70.473-0.082032 26.477 10.363 51.898 29.039 70.664 18.676 18.766 44.047 29.336 70.523 29.375 26.473 0.042969 51.879-10.441 70.613-29.148 18.738-18.707 29.266-44.094 29.266-70.57 0.0625-26.383-10.355-51.711-28.969-70.41-18.609-18.703-43.887-29.246-70.27-29.309zm0 151.32c-13.746 0.12891-26.977-5.2188-36.77-14.863-9.793-9.6445-15.348-22.789-15.43-36.535-0.085938-13.742 5.3008-26.957 14.977-36.719 9.6719-9.7656 22.836-15.277 36.578-15.32 13.746-0.042969 26.941 5.3867 36.676 15.09s15.207 22.883 15.207 36.629c0.0625 13.652-5.3008 26.773-14.91 36.473-9.6094 9.6992-22.676 15.184-36.328 15.246z"/>
 </g>
</svg>
