<?xml version="1.0" encoding="UTF-8"?>
<svg width="1200pt" height="1200pt" version="1.1" viewBox="0 0 1200 1200" xmlns="http://www.w3.org/2000/svg">
 <path transform="scale(3.6036)" d="m184 34c-25 0-45.001 21-45.001 46v99c-12 11-19 28-19 46 0 36 29 65 64 65 36 0 65-29 65-65 0-18-7.0004-35-19-46v-99c0-25-21-46-46-46z" fill="none" stroke="#fff" stroke-width="6.9449"/>
 <path transform="scale(3.6036)" d="m182 67c-11 0-19 7.9998-19 18v112c-9.0003 5.9999-15 16-15 28 0 18 15 33 34 33 18 0 33-15 33-33 0-12-5.9999-21.999-15-28v-112c0-9.9998-7.9998-18-18-18z" fill="none" stroke="#fff" stroke-width="6.9449"/>
 <path d="m327.93 590.99h111.71c10.812 0 21.621-7.207 21.621-21.621 0-10.812-10.812-21.621-21.621-21.621h-111.71c-10.812 0-21.621 10.812-21.621 21.621 0 14.414 10.812 21.621 21.621 21.621z" fill="#fff" fill-rule="evenodd"/>
 <path d="m327.93 407.21h111.71c10.812 0 21.621-7.207 21.621-21.621 0-10.812-10.812-18.02-21.621-18.02h-111.71c-10.812 0-21.621 7.207-21.621 18.02 0 14.414 10.812 21.621 21.621 21.621z" fill="#fff" fill-rule="evenodd"/>
 <path d="m356.76 324.32h82.883c14.414 0 21.621-10.812 21.621-21.621 0-14.414-7.207-21.621-21.621-21.621h-82.883c-10.812 0-21.621 7.207-21.621 21.621 0 10.812 10.812 21.621 21.621 21.621z" fill="#fff" fill-rule="evenodd"/>
 <path d="m443.24 464.86h-82.883c-14.414 0-21.621 7.207-21.621 18.02 0 14.414 7.207 21.621 21.621 21.621h82.883c10.812 0 21.621-7.207 21.621-21.621 0-10.812-10.812-18.02-21.621-18.02z" fill="#fff" fill-rule="evenodd"/>
 <path d="m691.89 374.77h-75.676v349.55c-32.434 14.414-54.055 46.848-54.055 86.488 0 50.449 39.641 90.09 90.09 90.09s93.695-39.641 93.695-90.09c0-36.035-21.621-68.469-54.055-82.883z" fill="#fff" fill-rule="evenodd"/>
</svg>
