<?xml version="1.0" encoding="UTF-8"?>
<svg width="1200pt" height="1200pt" version="1.1" viewBox="0 0 1200 1200" xmlns="http://www.w3.org/2000/svg">
 <g fill="#fff">
  <path d="m525.72 802.46-78.984-6.2891c-0.9375-0.058593-1.8242 0.046875-2.6992 0.34766l-19.5 6.7305c-2.9648 1.0312-4.8008 3.9844-4.4141 7.0938 0.38281 3.1211 2.8906 5.5195 6 5.7969l78.012 6.7422c0.19141 0.023437 0.38281 0.023437 0.57422 0.023437 0.74219 0 1.5-0.13281 2.207-0.37109l20.461-7.1992c2.9648-1.0312 4.7891-4.0078 4.3789-7.1172-0.39453-3.0938-2.9141-5.4961-6.0352-5.7578z"/>
  <path d="m456.9 836.3-75.949-9.2539c-1.0078-0.14453-2.0156-0.011719-2.9766 0.30078l-19.488 6.7422c-2.9141 1.0078-4.7539 3.875-4.4414 6.9492 0.3125 3.0586 2.6992 5.5078 5.7461 5.9023l74.977 9.7305c0.27734 0.023438 0.5625 0.046875 0.85156 0.046875 0.74219 0 1.5-0.13281 2.207-0.37109l20.461-7.1992c2.9023-1.0312 4.7266-3.9102 4.3906-6.9844-0.32812-3.0664-2.7148-5.4922-5.7773-5.8633z"/>
  <path d="m617.26 174.14c-237.38 0-430.51 193.13-430.51 430.51 0 237.41 193.13 430.54 430.51 430.54 170.2 0 317.62-99.289 387.45-242.98 0.81641-1.0781 1.4023-2.3047 1.7266-3.6602 26.473-55.801 41.34-118.13 41.34-183.9 0-237.39-193.12-430.51-430.51-430.51zm385.36 333.57h-98.258c-2.5312-0.023438-24.77-0.74219-24.77-19.094 0-3.3594 0.98437-5.8906 3.1211-7.9922 6.0703-5.9766 19.535-7.1875 24.023-7.0547h85.621c3.9023 11.16 7.3438 22.551 10.262 34.141zm-46.176-109.71h-151.34l-2.0625 0.035156c-4.6562 0.13281-17.027 0.48047-22.848-5.1953-2.5938-2.5195-3.8516-6.2891-3.8516-11.52 0-4.6914 1.2617-8.2305 3.8633-10.801 5.0391-4.9453 14.281-5.8555 17.641-5.8555h31.754c3.7695 0.35938 19.246 1.2344 29.125-7.5117 5.2188-4.6328 7.9805-11.051 7.9805-18.574 0-8.293-2.9297-15.469-8.4961-20.723-10.801-10.199-27.602-9.5391-28.883-9.457l-131.86-0.003906c-8.1602 0-14.074-1.8594-17.578-5.5312-3.2383-3.3594-4.7148-8.5781-4.4023-15.492 0.76953-17.941 23.953-18.613 26.566-18.625h127.09c51.68 32.727 95.359 77.008 127.3 129.25zm-736.51 206.65c0-12.938 0.67188-25.715 1.8828-38.328h108c2.6523 0.49219 13.367 3 13.367 10.992 0 7.9453-10.871 10.164-13.246 10.547h-58.656c-0.57422 0-1.1641 0.046874-1.7266 0.15625-8.3867 1.4766-24.254 8.5938-24.254 24.887 0 14.555 13.379 22.656 25.812 24.035 0.37109 0.046876 0.73047 0.070313 1.1055 0.070313l85.297-0.011719c2.0273 0.085938 12.156 1.1172 12.156 12.672 0 9.9492-6.8281 11.605-10.777 11.723l-134.86 0.003906c-2.6523-18.551-4.1016-37.488-4.1016-56.746zm559.64 362.64c-2.5195-8.6758-6.8047-15.91-12.926-21.602-14.062-13.055-32.594-12.887-35.832-12.707h-99.023c-14.809 0-25.621-3.2891-31.234-9.5273-5.3984-6-4.7266-13.223-4.7148-13.379 0.058593-0.44531 0.085937-0.875 0.085937-1.3203 0-6.4688 1.8594-11.258 5.6992-14.629 8.7461-7.6797 26.102-7.3555 32.016-6.6016 0.43359 0.058594 0.875 0.085938 1.3203 0.085938h134.73c17.965 0 30.898-4.5 38.426-13.379 6.7578-8.0039 6.6836-16.727 6.3828-19.777-0.35938-17.113-16.32-25.043-25.801-27.047-0.67188-0.14453-1.3555-0.21484-2.0508-0.21484h-34.715c-3.5625-0.12109-11.855-1.8594-11.855-15.48 0-14.531 16.094-15.457 19.246-15.492l205.84-0.003906c-41.582 75.242-106.79 135.65-185.59 171.07zm195.89-190.98h-216.12c-15.742 0-39.168 9.4336-39.168 35.398 0 25.957 18.91 35.387 31.633 35.387h33.562c2.3516 0.70703 9.2383 3.2031 9.2383 7.9453 0 0.55078 0 0.78125 0.097657 1.332 0.035156 0.27734 0.21484 2.8203-1.9922 5.2305-2.0625 2.2695-7.8125 6.1094-23.004 6.1094h-134.11c-5.3281-0.63672-30.875-2.7461-47.027 11.387-8.0742 7.0664-12.406 17.125-12.527 29.113-0.32422 3.5508-0.69531 16.656 9.3594 28.152 9.6016 10.969 25.211 16.535 46.391 16.535h99.266c0.25391 0 0.48047-0.011719 0.74219-0.035156 0.097656 0 12.59-0.68359 21.301 7.4023 3.8398 3.5742 6.3477 8.6289 7.8008 14.785-44.578 17.34-93 26.941-143.64 26.941-84.504 0-162.85-26.605-227.32-71.734l263.03-144.2c2.6523-1.4648 3.9727-4.5234 3.2539-7.4648-0.74219-2.9297-3.3945-4.9805-6.4219-4.9922l-25.547-0.070313c-1.1289-0.058594-2.1836 0.26562-3.1445 0.78125l-256.34 136.93c-10.824-8.9297-21.133-18.48-30.949-28.488l23.387 4.7656c0.44531 0.097657 0.88672 0.14453 1.332 0.14453 0.74219 0 1.4883-0.12109 2.207-0.37109l20.461-7.1992c2.8203-0.99609 4.6328-3.7578 4.4141-6.7422-0.21484-2.9883-2.4102-5.4609-5.3516-6.0234l-67.043-13.031c-1.1523-0.22656-2.3281-0.13281-3.4336 0.25391l-0.91016 0.3125c-3.3125-4.0938-6.5898-8.1953-9.7422-12.406l162.88-60.047c3.0117-1.1172 4.8008-4.2344 4.2344-7.3906-0.5625-3.1562-3.3125-5.4727-6.5273-5.4727h-23.242c-0.70703 0-1.4023 0.10938-2.0742 0.32422l-151.14 49.609c-7.3438-11.375-14.113-23.148-20.293-35.281h88.668c5.4961 0 9.9609-4.4531 9.9609-9.9492s-4.4531-9.9492-9.9609-9.9492h-98.125c-1.4297-3.2383-2.8086-6.4688-4.1406-9.7422h39.266c5.4961 0 9.9609-4.4531 9.9609-9.9492s-4.4648-9.9609-9.9609-9.9609h-46.766c-1.6914-4.8477-3.3242-9.7422-4.8242-14.688h135.59c5.4961 0 9.9609-4.4531 9.9609-9.9492 0-5.4961-4.4531-9.9609-9.9609-9.9609l-141.06 0.003907c-1.5234-6.2031-2.9297-12.445-4.1641-18.77h131.5c12.336 0 30.684-8.4102 30.684-31.621 0-22.895-18.66-32.027-31.633-32.578h-85.02c-2.4961-0.43359-7.7148-2.0898-7.7148-4.1875 0-2.7461 5.125-4.5859 7.1641-5.1367h58.262c0.38281 0 0.75781-0.023438 1.1406-0.070313 10.824-1.2461 31.309-9.2148 31.309-30.383 0-21.035-20.352-29.352-31.117-30.805-0.44531-0.070312-0.88672-0.097656-1.332-0.097656h-106.41c28.262-191.58 193.73-339.1 393.02-339.1 63.406 0 123.36 14.988 176.61 41.531h-91.801-0.085938c-15.539 0-45.109 7.8594-46.402 37.668-0.52734 12.371 2.8906 22.789 9.9102 30.133 7.4141 7.7539 18.18 11.676 31.969 11.676l132.39-0.023437c3.0469-0.20312 11.016 0.61328 14.664 4.043 1.043 0.99609 2.2578 2.6055 2.2578 6.2539 0 2.5312-0.83984 3.2891-1.2461 3.6602-2.8438 2.543-10.211 3.0703-14.219 2.5938-0.38281-0.046875-0.79297-0.070312-1.1992-0.070312l-32.027 0.011718c-2.0039-0.035156-19.789-0.16797-31.727 11.461-6.5039 6.3359-9.9375 15.012-9.9375 25.105 0 10.738 3.3242 19.414 9.875 25.789 10.031 9.7422 24.793 10.883 33.312 10.883 1.5586 0 2.9023-0.035157 3.9727-0.070313l164.21-0.023437c6.2031 11.594 11.855 23.508 16.906 35.746h-77.746c-2.4375-0.085937-24.996-0.16797-38.148 12.719-5.9766 5.832-9.1328 13.535-9.1328 22.246 0 30.852 29.195 39 44.641 39h102.72c1.0078 5.1016 1.957 10.223 2.7617 15.371-14.316 3.1914-40.262 7.3438-73.32 5.6758-68.207-3.4453-132.71-28.766-191.76-75.301-1.2461-0.98438-17.34-13.285-41.844-24.961v-40.211h10.273c3.7422-0.22656 10.188 0.92578 11.184 9.8984 0.5625 5.0898 4.8711 8.8555 9.875 8.8555 0.37109 0 0.74219-0.023438 1.1172-0.070312 5.4727-0.60156 9.3945-5.5195 8.7852-10.992-2.375-21.469-20.16-28.223-31.812-27.602h-107.27c-20.699 0-28.766 13.934-30.145 21.289-1.0078 5.3984 2.543 10.609 7.957 11.617 5.4258 1.0078 10.609-2.5547 11.617-7.957 0.011719-0.046875 1.1992-5.0391 10.57-5.0391h5.4961l-1.5234 18.938-100.54 0.011718c-22.535 0.55078-62.258 11.566-68.09 49.535l-30.305 216.06 0.097657 1.6445c1.4531 24.719 18.457 71.473 72.406 71.473l209.71-0.011718c1.0195 0.035156 4.8242 0.14453 10.98 0.14453 40.535 0 182.91-4.6445 299.55-65.363-6.5469 26.359-15.789 51.668-27.344 75.668zm12.863-178.07v11.039c0 1.6445-1.1875 3.0234-2.7852 3.2773l-4.5352 0.73047c-0.17969 0.023437-0.33594 0.035156-0.51562 0.035156-0.78125 0-1.5469-0.26562-2.1602-0.79297-0.74219-0.63672-1.1641-1.5469-1.1758-2.5195l-0.046876-12.562c0-0.98438 0.43359-1.9062 1.1992-2.543 0.74219-0.64844 1.7656-0.91016 2.7109-0.73047l4.5703 0.79297c1.5977 0.28906 2.7383 1.668 2.7383 3.2734zm-19.441-0.29688v14.496c0 1.6562-1.1992 3.0352-2.7969 3.2891l-5.9414 0.9375c-0.19141 0.035156-0.34766 0.046875-0.52734 0.046875-0.78125 0-1.5469-0.27734-2.1484-0.78125-0.74219-0.64844-1.1758-1.5586-1.1758-2.5195l-0.058593-16.523c-0.011719-0.98438 0.43359-1.9219 1.1875-2.5547 0.75781-0.63672 1.7539-0.89844 2.7227-0.73047l6 1.0664c1.5977 0.28516 2.7383 1.6523 2.7383 3.2734zm-23.352-3.1445-0.35938 20.891c-0.023438 1.6328-1.2344 3-2.8438 3.2383l-6.6719 0.9375c-0.14453 0.023437-0.30078 0.035156-0.45703 0.035156-0.80469 0-1.5859-0.28906-2.1953-0.82812-0.73047-0.64844-1.1523-1.5703-1.1289-2.5312l0.28906-22.895c0.011719-0.96094 0.44531-1.8594 1.1875-2.4844 0.74219-0.63672 1.7031-0.89844 2.6523-0.74219l6.7305 1.0664c1.6328 0.25 2.8203 1.668 2.7969 3.3125zm-26.184 21.852c0.023438 1.8242-1.4297 3.3359-3.2539 3.3711l-11.617 0.23828h-0.070312c-0.86328 0-1.7148-0.34766-2.3281-0.96094-0.64844-0.63672-0.99609-1.5-0.98438-2.3867l0.28906-25.738c0.011719-0.99609 0.46875-1.9453 1.2617-2.5547 0.76953-0.63672 1.8008-0.86328 2.7852-0.63672l10.969 2.4727c1.5 0.33594 2.5547 1.6562 2.5938 3.1797zm-34.883-26.398-0.35938 24.781c-0.058593 3.3828-2.6406 6.1914-6.0117 6.5039l-9.8398 0.94922c-0.21484 0.011718-0.42188 0.023437-0.63672 0.023437-1.6562 0-3.2539-0.625-4.4883-1.7539-1.3789-1.2617-2.1719-3.0703-2.1484-4.9453l0.28906-29.629c0.011719-2.1836 1.1172-4.2227 2.9141-5.4375 1.8125-1.2227 4.1055-1.4766 6.1445-0.68359l9.9102 3.8984c2.582 1.0234 4.2617 3.5195 4.2266 6.293zm-39.527-10.371-1.1875 33.996c-0.12109 3.5742-3.0469 6.4062-6.625 6.4062h-18.742c-1.7656 0-3.4453-0.69531-4.7031-1.9453-1.2461-1.2461-1.9336-2.9297-1.9336-4.6914v-46.883c0-2.4375 1.332-4.6797 3.4688-5.8203 2.125-1.1758 4.7383-1.0781 6.7695 0.25391l19.906 12.887c1.9766 1.2734 3.1289 3.4805 3.0469 5.7969zm-55.25-22.488-0.011719 51.562c0 2.7617-1.1641 5.4375-3.2031 7.3086-1.8477 1.7148-4.2617 2.6523-6.7422 2.6523-0.26562 0-0.53906-0.011719-0.79297-0.035156l-29.293-2.3281c-5.1016-0.42188-9.0469-4.6445-9.1445-9.7578l-1.1758-64.441c-0.070312-3.4922 1.6914-6.7422 4.6445-8.6055 2.9531-1.8594 6.6602-2.0273 9.7578-0.49219l30.457 15.238c3.3672 1.6875 5.5039 5.1328 5.5039 8.8984zm-322.88 55.668c-2.8086-0.023437-5.4961-1.2461-7.3672-3.3359-1.8711-2.1133-2.7617-4.8945-2.4609-7.7031l11.711-107.8c0.53906-5.0273 4.7656-8.832 9.8164-8.8789l155.83-1.1758c2.4727-0.25391 5.207 1.0195 7.0938 2.8906 1.8711 1.8594 2.9297 4.4023 2.9297 7.0664v110.14c0 2.6523-1.0547 5.207-2.9297 7.0664-1.8594 1.8594-4.3789 2.9023-7.0195 2.9023h-0.058594zm164.94 68.57c0 7.5586-6.1445 13.715-13.715 13.715-7.5703 0-13.727-6.1562-13.727-13.715 0-7.5703 6.1562-13.738 13.727-13.738 7.5742-0.003907 13.715 6.1641 13.715 13.738zm-166.38 0c0 7.5586-6.1562 13.715-13.715 13.715-7.5586 0-13.715-6.1562-13.715-13.715 0-7.5703 6.1562-13.738 13.715-13.738 7.5586-0.003907 13.715 6.1641 13.715 13.738zm163.54-254.02 1.5703-19.402 52.477-0.011719v31.738c-16.16-6.0508-34.57-10.898-54.047-12.324zm378.66 183.02-2.8438 0.66016c-0.25391 0.058593-0.50391 0.085937-0.74219 0.085937-0.74219 0-1.4648-0.25391-2.0625-0.71875-0.78125-0.63672-1.2461-1.5859-1.2461-2.6055l-0.023437-11.52c0-1.0195 0.46875-1.9922 1.2734-2.6289 0.81641-0.625 1.8828-0.83984 2.8672-0.60156l2.8672 0.74219c1.4648 0.37109 2.4961 1.7031 2.4961 3.2148v10.129c-0.003906 1.5508-1.0859 2.8945-2.5859 3.2422z"/>
  <path d="m618.46 827.29c-5.4961 0-9.9492 4.4531-9.9492 9.9492 0 5.4961 4.4531 9.9609 9.9492 9.9609h77.82c5.5078 0 9.9609-4.4648 9.9609-9.9609 0-5.4961-4.4531-9.9492-9.9609-9.9492z"/>
  <path d="m557.93 870.54h-25.945c-5.4961 0-9.9609 4.4531-9.9609 9.9492 0 5.4961 4.4531 9.9492 9.9609 9.9492h25.945c5.4961 0 9.9609-4.4531 9.9609-9.9492-0.003906-5.4961-4.4648-9.9492-9.9609-9.9492z"/>
  <path d="m550.86 931.48h-84c-5.4961 0-9.9492 4.4531-9.9492 9.9492 0 5.4961 4.4531 9.9609 9.9492 9.9609h84c5.4961 0 9.9609-4.4648 9.9609-9.9609 0-5.4961-4.4648-9.9492-9.9609-9.9492z"/>
 </g>
</svg>
