<?xml version="1.0" encoding="UTF-8"?>
<svg width="1200pt" height="1200pt" version="1.1" viewBox="0 0 1200 1200" xmlns="http://www.w3.org/2000/svg">
 <g fill="#fff">
  <path d="m1125 187.5v112.5h-112.5v-112.5h-75v112.5h-112.5v-112.5h-75v112.5h-112.5v-112.5h-75v112.5h-112.5v-112.5h-75v112.5h-112.5v-112.5h-75v112.5h-112.5v-112.5h-75v150h1200v-150z"/>
  <path d="m0 450v337.5h1200v-375h-1200zm1012.5 0h112.5v300h-112.5zm-187.5 0h112.5v300h-112.5zm-187.5 0h112.5v300h-112.5zm-187.5 0h112.5v300h-112.5zm-187.5 0h112.5v300h-112.5zm-187.5 0h112.5v300h-112.5z"/>
  <path d="m0 900v112.5h75v-112.5h112.5v112.5h75v-112.5h112.5v112.5h75v-112.5h112.5v112.5h75v-112.5h112.5v112.5h75v-112.5h112.5v112.5h75v-112.5h112.5v112.5h75v-150h-1200z"/>
 </g>
</svg>
