<?xml version="1.0" encoding="UTF-8"?>
<svg width="1200pt" height="1200pt" version="1.1" viewBox="0 0 1200 1200" xmlns="http://www.w3.org/2000/svg">
 <g fill="#fff">
  <path d="m102 777.6c0 9.6016 8.3984 18 18 18h920.4c18 0 34.801-8.3984 45.602-22.801 10.801-14.398 14.398-32.398 9.6016-49.199-13.199-45.602-44.398-90-86.398-129.6-1.1992-2.3984-4.8008-4.8008-7.1992-7.1992-42-38.398-94.801-74.398-153.6-105.6-2.3984-1.1992-3.6016-2.3984-6-3.6016-144-75.602-318-123.6-442.8-123.6h-3.6016l-26.398-66c-2.3984-7.1992-9.6016-12-16.801-12l-100.8 0.003906c-6 0-12 3.6016-15.602 8.3984-3.6016 4.8008-3.6016 12-1.1992 16.801l20.398 51.602h-135.6c-9.6016 0-18 8.3984-18 18 0 9.6016 8.3984 18 18 18h277.2c98.398 0 234 32.398 356.4 86.398h-170.4c-6 0-10.801 2.3984-14.398 7.1992-3.6016 4.8008-4.8008 10.801-2.3984 15.602l31.199 108c2.3984 8.3984 9.6016 13.199 18 13.199h370.8c36 34.801 62.398 73.199 74.398 112.8 1.1992 6 0 12-3.6016 16.801-3.6016 4.8008-9.6016 8.3984-15.602 8.3984h-921.6c-9.6016 2.4023-18 10.801-18 20.402zm194.4-422.4-16.801-40.801h58.801l16.801 40.801zm331.2 230.4-20.398-70.801h223.2c40.801 21.602 79.199 45.602 111.6 70.801z"/>
  <path d="m421.2 622.8h98.398c6 0 10.801-2.3984 14.398-7.1992 3.6016-4.8008 4.8008-10.801 2.3984-15.602l-31.199-108c-2.3984-8.3984-9.6016-13.199-18-13.199h-98.398c-6 0-10.801 2.3984-14.398 7.1992-3.6016 4.8008-4.8008 10.801-2.3984 15.602l31.199 108c2.4023 7.1992 9.6016 13.199 18 13.199zm54-108 20.398 70.801h-60l-20.398-70.801z"/>
  <path d="m242.4 622.8h98.398c6 0 10.801-2.3984 14.398-7.1992 3.6016-4.8008 4.8008-10.801 2.3984-15.602l-31.199-108c-2.3984-8.3984-9.6016-13.199-18-13.199h-98.398c-6 0-10.801 2.3984-14.398 7.1992-3.6016 4.8008-4.8008 10.801-2.3984 15.602l31.199 108c2.4023 7.1992 9.6016 13.199 18 13.199zm52.801-108 20.398 70.801h-60l-20.398-70.801z"/>
  <path d="m1080 885.6h-955.2c-9.6016 0-18 8.3984-18 18 0 9.6016 8.3984 18 18 18h955.2c9.6016 0 18-8.3984 18-18 0-9.6016-8.3984-18-18-18z"/>
 </g>
</svg>
