<?xml version="1.0" encoding="UTF-8"?>
<svg width="1200pt" height="1200pt" version="1.1" viewBox="0 0 1200 1200" xmlns="http://www.w3.org/2000/svg">
 <g fill="#fff">
  <path d="m74.398 580.08h585.6c112.08 0 203.04-91.199 203.04-203.28 0-91.922-74.879-166.8-166.8-166.8-75.84 0-137.52 61.68-137.52 137.52 0 63.121 51.359 114.24 114.24 114.24 52.801 0 95.52-42.961 95.52-95.52 0-11.52-9.3594-20.879-20.879-20.879-11.52 0-20.879 9.3594-20.879 20.879 0 29.52-24 53.762-53.762 53.762-39.84 0-72.238-32.398-72.238-72.238 0-52.801 42.961-95.762 95.762-95.762 68.879 0 124.8 55.922 124.8 124.8 0 89.039-72.238 161.28-161.28 161.28h-585.6c-11.52 0-20.879 9.3594-20.879 20.879 0 11.523 9.3594 21.121 20.879 21.121z"/>
  <path d="m883.2 580.08h108.48 0.96094c84.961-0.96094 154.08-70.559 154.08-155.76 0-71.039-57.84-128.88-128.88-128.88-59.281 0-107.28 48.238-107.28 107.28 0 49.68 40.32 90 90 90 42 0 76.32-34.078 76.32-76.32 0-11.52-9.3594-20.879-20.879-20.879s-20.879 9.3594-20.879 20.879c0 18.961-15.359 34.32-34.32 34.32-26.641 0-48-21.602-48-48 0-36 29.281-65.281 65.281-65.281 48 0 86.879 39.121 86.879 86.879 0 62.879-51.121 114-114 114l-107.76 0.003906c-11.52 0-20.879 9.3594-20.879 20.879s9.3594 20.879 20.879 20.879z"/>
  <path d="m660 619.92h-585.84c-11.52 0-20.879 9.3594-20.879 20.879s9.3594 20.879 20.879 20.879h585.6c89.039 0 161.28 72.238 161.28 161.28 0 68.879-55.922 124.8-124.8 124.8-52.801 0-95.762-42.961-95.762-95.762 0-39.84 32.398-72.238 72.238-72.238 29.52 0 53.762 24 53.762 53.762 0 11.52 9.3594 20.879 20.879 20.879s20.879-9.3594 20.879-20.879c0-52.801-42.961-95.52-95.52-95.52-63.121 0-114.24 51.359-114.24 114.24 0 75.84 61.68 137.52 137.52 137.52 91.922 0 166.8-74.879 166.8-166.8 0.23828-111.84-90.723-202.8-202.8-203.04z"/>
  <path d="m992.64 620.16h-0.96094-108.48c-11.52 0-20.879 9.3594-20.879 20.879 0 11.52 9.3594 20.879 20.879 20.879h107.52c62.879 0 114 51.121 114 114 0 48-39.121 86.879-86.879 86.879-36 0-65.281-29.281-65.281-65.281 0-26.641 21.602-48 48-48 18.961 0 34.32 15.359 34.32 34.32 0 11.52 9.3594 20.879 20.879 20.879 11.52 0 20.879-9.3594 20.879-20.879 0-42-34.078-76.32-76.32-76.32-49.68 0-90 40.32-90 90 0 59.281 48.238 107.28 107.28 107.28 71.039 0 128.88-57.84 128.88-128.88 0.24219-85.438-68.875-154.8-153.84-155.76z"/>
  <path d="m74.398 502.32h439.92c11.52 0 20.879-9.3594 20.879-20.879 0-11.52-9.3594-20.879-20.879-20.879l-439.92-0.003906c-11.52 0-20.879 9.3594-20.879 20.879 0 11.523 9.3594 20.883 20.879 20.883z"/>
  <path d="m514.08 703.92h-439.68c-11.52 0-20.879 9.3594-20.879 20.879s9.3594 20.879 20.879 20.879h439.92c11.52 0 20.879-9.3594 20.879-20.879s-9.3594-20.879-21.121-20.879z"/>
 </g>
</svg>
